<svg width="22" height="22" viewBox="0 0 22 22" fill="none" xmlns="http://www.w3.org/2000/svg">
<g clip-path="url(#clip0_4497_10284)">
<path d="M4.7309 13.6491C3.56949 13.5785 2.54284 12.9946 1.88833 12.1219C1.55469 12.5198 1.375 13.0203 1.375 13.5464V15.2661C1.375 15.9655 1.93967 16.5302 2.63268 16.5302H4.78225C4.75017 16.3569 4.7309 16.1773 4.7309 15.9976V13.6491Z" fill="url(#paint0_linear_4497_10284)"/>
<path d="M20.1117 12.1219C19.4572 12.9946 18.4305 13.5785 17.2691 13.6491V15.9976C17.2691 16.1773 17.2498 16.3569 17.2178 16.5302H19.3673C20.0604 16.5302 20.625 15.9655 20.625 15.2661V13.5464C20.625 13.0203 20.4453 12.5198 20.1117 12.1219Z" fill="url(#paint1_linear_4497_10284)"/>
<path d="M6.64292 9.88258C6.37982 9.2858 6.22583 8.63133 6.22583 7.93831C6.22583 7.8164 6.23225 7.69448 6.24509 7.57256C5.86649 7.34799 5.43017 7.22607 4.96176 7.22607C3.54366 7.22607 2.38867 8.38107 2.38867 9.79916C2.38867 11.1851 3.49232 12.3209 4.87192 12.3658C5.13498 11.3584 5.75742 10.4793 6.64292 9.88258Z" fill="url(#paint2_linear_4497_10284)"/>
<path d="M19.6107 9.79916C19.6107 8.38107 18.4557 7.22607 17.0376 7.22607C16.5692 7.22607 16.1329 7.34799 15.7543 7.57256C15.7671 7.69448 15.7735 7.8164 15.7735 7.93831C15.7735 8.63133 15.6196 9.2858 15.3564 9.88258C16.2419 10.4793 16.8644 11.3584 17.1275 12.3658C18.5071 12.3209 19.6107 11.1851 19.6107 9.79916Z" fill="url(#paint3_linear_4497_10284)"/>
<path d="M14.6836 10.9734C13.8045 12.0322 12.4827 12.7123 11.0004 12.7123C9.51816 12.7123 8.19633 12.0322 7.31725 10.9734C6.50232 11.5381 6.01465 12.4621 6.01465 13.4631V15.9977C6.01465 16.8511 6.70766 17.5505 7.56751 17.5505H14.4333C15.2932 17.5505 15.9862 16.8511 15.9862 15.9977V13.4631C15.9862 12.4621 15.4985 11.5381 14.6836 10.9734Z" fill="url(#paint4_linear_4497_10284)"/>
<path d="M10.9998 11.4276C12.9268 11.4276 14.4889 9.86554 14.4889 7.93859C14.4889 6.01163 12.9268 4.44952 10.9998 4.44952C9.07285 4.44952 7.51074 6.01163 7.51074 7.93859C7.51074 9.86554 9.07285 11.4276 10.9998 11.4276Z" fill="url(#paint5_linear_4497_10284)"/>
</g>
<defs>
<linearGradient id="paint0_linear_4497_10284" x1="2.74416" y1="12.1219" x2="5.12415" y2="13.4396" gradientUnits="userSpaceOnUse">
<stop stop-color="#29BBDF"/>
<stop offset="1" stop-color="#008AAC"/>
</linearGradient>
<linearGradient id="paint1_linear_4497_10284" x1="18.5869" y1="12.1219" x2="20.9669" y2="13.4396" gradientUnits="userSpaceOnUse">
<stop stop-color="#29BBDF"/>
<stop offset="1" stop-color="#008AAC"/>
</linearGradient>
<linearGradient id="paint2_linear_4497_10284" x1="4.09819" y1="7.22607" x2="6.97089" y2="8.92924" gradientUnits="userSpaceOnUse">
<stop stop-color="#29BBDF"/>
<stop offset="1" stop-color="#008AAC"/>
</linearGradient>
<linearGradient id="paint3_linear_4497_10284" x1="17.066" y1="7.22607" x2="19.9387" y2="8.92924" gradientUnits="userSpaceOnUse">
<stop stop-color="#29BBDF"/>
<stop offset="1" stop-color="#008AAC"/>
</linearGradient>
<linearGradient id="paint4_linear_4497_10284" x1="10.0216" y1="10.9734" x2="14.1973" y2="15.508" gradientUnits="userSpaceOnUse">
<stop stop-color="#29BBDF"/>
<stop offset="1" stop-color="#008AAC"/>
</linearGradient>
<linearGradient id="paint5_linear_4497_10284" x1="10.3148" y1="4.44952" x2="14.5237" y2="7.46427" gradientUnits="userSpaceOnUse">
<stop stop-color="#29BBDF"/>
<stop offset="1" stop-color="#008AAC"/>
</linearGradient>
<clipPath id="clip0_4497_10284">
<rect width="22" height="22" fill="white"/>
</clipPath>
</defs>
</svg>
