<svg width="11" height="12" viewBox="0 0 11 12" fill="none" xmlns="http://www.w3.org/2000/svg">
<path d="M1.14062 5.0625L5.07812 0.9375C5.19531 0.820312 5.33594 0.773438 5.5 0.773438C5.64062 0.773438 5.78125 0.820312 5.89844 0.9375L9.83594 5.0625C10.0469 5.29688 10.0469 5.64844 9.8125 5.85938C9.60156 6.07031 9.22656 6.07031 9.01562 5.83594L6.0625 2.71875V10.6875C6.0625 11.0156 5.80469 11.25 5.5 11.25C5.21875 11.25 4.9375 11.0156 4.9375 10.6875V2.71875L1.96094 5.83594C1.75 6.07031 1.375 6.07031 1.16406 5.85938C0.929688 5.64844 0.929688 5.27344 1.14062 5.0625Z" fill="currentColor"/>
</svg>
