<svg width="9" height="20" viewBox="0 0 9 20" fill="none" xmlns="http://www.w3.org/2000/svg">
<path d="M0.0938659 10.0755C0.109992 10.2612 0.184622 10.4369 0.307004 10.5774L7.347 18.7174C7.42147 18.809 7.51362 18.8848 7.61796 18.9401C7.72231 18.9954 7.83672 19.0291 7.95437 19.0392C8.07202 19.0494 8.19051 19.0358 8.30279 18.9992C8.41507 18.9626 8.51882 18.9038 8.6079 18.8262C8.69697 18.7487 8.76953 18.654 8.82125 18.5479C8.87297 18.4417 8.9028 18.3262 8.90896 18.2083C8.91512 18.0904 8.89747 17.9724 8.85709 17.8615C8.8167 17.7505 8.7544 17.6488 8.67389 17.5624L2.13575 9.99989L8.67389 2.43739C8.7544 2.351 8.81671 2.24929 8.85709 2.13833C8.89747 2.02736 8.91512 1.90939 8.90896 1.79147C8.9028 1.67354 8.87297 1.55806 8.82125 1.4519C8.76953 1.34574 8.69697 1.25107 8.6079 1.17354C8.51882 1.09601 8.41507 1.03719 8.30279 1.0006C8.19051 0.964004 8.07202 0.95038 7.95437 0.960537C7.83672 0.970694 7.72231 1.00442 7.61796 1.05972C7.51362 1.11501 7.42147 1.19074 7.347 1.28239L0.307004 9.42239C0.229498 9.5114 0.170683 9.6151 0.134068 9.7273C0.0974527 9.83951 0.0837808 9.95793 0.0938659 10.0755Z" fill="#29BBDF"/>
</svg>
