<svg width="16" height="16" viewBox="0 0 16 16" fill="none" xmlns="http://www.w3.org/2000/svg">
<path d="M15.2778 0.698453L15.3016 0.722206C15.6084 1.02905 15.6084 1.52653 15.3016 1.83337L9.13493 8.00001L15.3016 14.1667C15.6084 14.4735 15.6084 14.971 15.3016 15.2778L15.2778 15.3016C14.971 15.6084 14.4735 15.6084 14.1666 15.3016L8 9.13493L1.83337 15.3016C1.52653 15.6084 1.02904 15.6084 0.722198 15.3016L0.698446 15.2778C0.391605 14.971 0.391605 14.4735 0.698446 14.1667L6.86508 8.00001L0.698446 1.83337C0.391605 1.52653 0.391605 1.02905 0.698446 0.722206L0.722198 0.698453C1.02904 0.391613 1.52653 0.391613 1.83337 0.698453L8 6.86509L14.1666 0.698453C14.4735 0.391613 14.971 0.391613 15.2778 0.698453Z" fill="#1E1E1E"/>
</svg>
