<svg width="30" height="30" viewBox="0 0 30 30" fill="none" xmlns="http://www.w3.org/2000/svg">
<circle cx="15" cy="15" r="15" fill="url(#paint0_linear_111_4061)"/>
<path d="M21.4772 5.85705C20.8354 5.85705 20.1937 6.10035 19.7071 6.58697L18.8388 7.45639L12.1356 14.1584C12.0486 14.2454 11.9917 14.3593 11.9738 14.4809L11.5118 17.6952C11.485 17.8738 11.5452 18.0535 11.6725 18.1818C11.7997 18.3091 11.9805 18.3693 12.1591 18.3437L15.3734 17.8816C15.495 17.8637 15.6088 17.8068 15.6959 17.7187L23.2673 10.1472C24.2394 9.17514 24.2394 7.58025 23.2673 6.60694L23.2461 6.58685C22.7595 6.10025 22.1178 5.85693 21.476 5.85693L21.4772 5.85705ZM9.30975 6.88048C7.40798 6.88048 5.85433 8.43628 5.85547 10.3371V20.5456C5.85547 22.4474 7.40904 23.9999 9.30975 23.9999H19.5206C21.4224 23.9999 22.976 22.4475 22.976 20.5456V14.2308H22.9749C22.9749 14.079 22.9147 13.9328 22.8075 13.8256C22.7004 13.7185 22.5542 13.6582 22.4024 13.6582C22.2506 13.6582 22.1055 13.7185 21.9983 13.8256C21.8912 13.9328 21.8309 14.079 21.8309 14.2308V20.5456C21.8309 21.8291 20.803 22.857 19.5196 22.857H9.3087C8.02522 22.857 6.99733 21.8291 6.99733 20.5456V10.3371C6.99733 9.05357 8.02524 8.02342 9.3087 8.02342H15.6244C15.7762 8.02342 15.9213 7.96315 16.0284 7.85601C16.1356 7.74887 16.1959 7.60378 16.1959 7.45198C16.1959 7.13613 15.9392 6.88055 15.6244 6.88055L9.30975 6.88048ZM21.4772 6.99432C21.8243 6.99432 22.1714 7.12713 22.4392 7.39498L22.4593 7.41841C22.995 7.95413 22.995 8.80459 22.4593 9.3403L21.9939 9.80347L20.0508 7.8615V7.86038L20.5151 7.39387C20.783 7.12601 21.1301 6.99321 21.4761 6.99321L21.4772 6.99432ZM19.2417 8.66843L21.187 10.6137L15.0219 16.7777L12.7529 17.1047L13.0799 14.8335L19.2417 8.66843Z" fill="white"/>
<defs>
<linearGradient id="paint0_linear_111_4061" x1="12.0551" y1="-6.74004e-07" x2="30.1497" y2="12.9609" gradientUnits="userSpaceOnUse">
<stop stop-color="#29BBDF"/>
<stop offset="1" stop-color="#008AAC"/>
</linearGradient>
</defs>
</svg>
