<svg width="22" height="22" viewBox="0 0 22 22" fill="none" xmlns="http://www.w3.org/2000/svg">
<path d="M9.35039 5.02158C9.35039 5.93285 10.0891 6.67158 11.0004 6.67158C11.9117 6.67158 12.6504 5.93285 12.6504 5.02158C12.6504 4.11031 11.9117 3.37158 11.0004 3.37158C10.0891 3.37158 9.35039 4.11031 9.35039 5.02158Z" fill="#1E1E1E"/>
<path d="M9.35039 11.0011C9.35039 11.9123 10.0891 12.6511 11.0004 12.6511C11.9117 12.6511 12.6504 11.9123 12.6504 11.0011C12.6504 10.0898 11.9117 9.35107 11.0004 9.35107C10.0891 9.35107 9.35039 10.0898 9.35039 11.0011Z" fill="#1E1E1E"/>
<path d="M9.35039 16.9806C9.35039 17.8918 10.0891 18.6306 11.0004 18.6306C11.9117 18.6306 12.6504 17.8918 12.6504 16.9806C12.6504 16.0693 11.9117 15.3306 11.0004 15.3306C10.0891 15.3306 9.35039 16.0693 9.35039 16.9806Z" fill="#1E1E1E"/>
</svg>
