<svg width="18" height="17" viewBox="0 0 18 17" fill="none" xmlns="http://www.w3.org/2000/svg">
<path d="M9.71366 0.678427L11.9551 5.21983L16.9669 5.94795H16.9676C17.2676 5.9917 17.5169 6.20185 17.6106 6.49013C17.7036 6.77841 17.6254 7.09481 17.409 7.30653L13.7824 10.8417L14.6387 15.8339H14.6379C14.6895 16.1324 14.5668 16.4347 14.3215 16.6128C14.0762 16.7909 13.7512 16.8144 13.4824 16.673L8.99964 14.3168L4.51684 16.673C4.24808 16.8144 3.92308 16.791 3.67778 16.6128C3.43248 16.4347 3.30982 16.1324 3.36138 15.8339L4.21762 10.8417L0.590218 7.30653C0.373038 7.09481 0.294898 6.77841 0.388658 6.49013C0.482408 6.20185 0.731618 5.99169 1.03162 5.94795L6.04402 5.21983L8.28542 0.678427C8.41979 0.406547 8.69636 0.233887 8.99948 0.233887C9.3026 0.233887 9.57928 0.406543 9.71366 0.678427Z" fill="#29BBDF"/>
</svg>
