<svg width="14" height="21" viewBox="0 0 14 21" fill="none" xmlns="http://www.w3.org/2000/svg">
<path d="M0.816406 5H13.1914C13.3737 5 13.5486 4.92757 13.6775 4.79864C13.8065 4.6697 13.8789 4.49484 13.8789 4.3125C13.8789 4.13016 13.8065 3.9553 13.6775 3.82636C13.5486 3.69743 13.3737 3.625 13.1914 3.625H11.1289V2.9375C11.1273 2.39099 10.9095 1.86734 10.523 1.4809C10.1366 1.09445 9.61291 0.876632 9.06641 0.875H4.94141C4.3944 0.875 3.86979 1.0923 3.483 1.47909C3.0962 1.86589 2.87891 2.39049 2.87891 2.9375V3.625H0.816406C0.63407 3.625 0.459201 3.69743 0.33027 3.82636C0.201339 3.9553 0.128906 4.13016 0.128906 4.3125C0.128906 4.49484 0.201339 4.6697 0.33027 4.79864C0.459201 4.92757 0.63407 5 0.816406 5ZM4.25391 2.9375C4.25391 2.75516 4.32634 2.5803 4.45527 2.45136C4.5842 2.32243 4.75907 2.25 4.94141 2.25H9.06641C9.24874 2.25 9.42361 2.32243 9.55254 2.45136C9.68147 2.5803 9.75391 2.75516 9.75391 2.9375V3.625H4.25391V2.9375Z" fill="#F0101B"/>
<path d="M12.5039 5.6875H1.50391C1.13923 5.6875 0.789497 5.83237 0.531634 6.09023C0.273772 6.34809 0.128906 6.69783 0.128906 7.0625V18.0625C0.128906 18.6095 0.346205 19.1341 0.732999 19.5209C1.11979 19.9077 1.6444 20.125 2.19141 20.125H11.8164C12.3629 20.1234 12.8866 19.9055 13.273 19.5191C13.6595 19.1327 13.8773 18.609 13.8789 18.0625V7.0625C13.8778 6.69816 13.7326 6.34906 13.475 6.09143C13.2173 5.8338 12.8682 5.68859 12.5039 5.6875ZM4.16453 16.6875V9.125C4.16453 8.94266 4.23696 8.7678 4.3659 8.63886C4.49483 8.50993 4.66969 8.4375 4.85203 8.4375C5.03437 8.4375 5.20924 8.50993 5.33817 8.63886C5.4671 8.7678 5.53953 8.94266 5.53953 9.125V16.6875C5.53953 16.8698 5.4671 17.0447 5.33817 17.1736C5.20924 17.3026 5.03437 17.375 4.85203 17.375C4.66969 17.375 4.49483 17.3026 4.3659 17.1736C4.23696 17.0447 4.16453 16.8698 4.16453 16.6875ZM9.83641 16.6875C9.83641 16.8698 9.76397 17.0447 9.63504 17.1736C9.50611 17.3026 9.33124 17.375 9.14891 17.375C8.96657 17.375 8.7917 17.3026 8.66277 17.1736C8.53384 17.0447 8.46141 16.8698 8.46141 16.6875V9.125C8.46141 8.94266 8.53384 8.7678 8.66277 8.63886C8.7917 8.50993 8.96657 8.4375 9.14891 8.4375C9.33124 8.4375 9.50611 8.50993 9.63504 8.63886C9.76397 8.7678 9.83641 8.94266 9.83641 9.125V16.6875Z" fill="#F0101B"/>
</svg>
