<svg width="22" height="22" viewBox="0 0 22 22" fill="none" xmlns="http://www.w3.org/2000/svg">
<g clip-path="url(#clip0_4497_11355)">
<path d="M4.7309 13.6491C3.56949 13.5785 2.54284 12.9946 1.88833 12.1219C1.55469 12.5198 1.375 13.0203 1.375 13.5464V15.2661C1.375 15.9655 1.93967 16.5302 2.63268 16.5302H4.78225C4.75017 16.3569 4.7309 16.1773 4.7309 15.9976V13.6491Z" fill="#1E1E1E"/>
<path d="M20.1107 12.1219C19.4562 12.9946 18.4296 13.5785 17.2681 13.6491V15.9976C17.2681 16.1773 17.2489 16.3569 17.2168 16.5302H19.3664C20.0594 16.5302 20.624 15.9655 20.624 15.2661V13.5464C20.624 13.0203 20.4444 12.5198 20.1107 12.1219Z" fill="#1E1E1E"/>
<path d="M6.64292 9.88258C6.37982 9.2858 6.22583 8.63133 6.22583 7.93831C6.22583 7.8164 6.23225 7.69448 6.24509 7.57256C5.86649 7.34799 5.43017 7.22607 4.96176 7.22607C3.54366 7.22607 2.38867 8.38107 2.38867 9.79916C2.38867 11.1851 3.49232 12.3209 4.87192 12.3658C5.13498 11.3584 5.75742 10.4793 6.64292 9.88258Z" fill="#1E1E1E"/>
<path d="M19.6117 9.79916C19.6117 8.38107 18.4567 7.22607 17.0386 7.22607C16.5702 7.22607 16.1339 7.34799 15.7553 7.57256C15.7681 7.69448 15.7745 7.8164 15.7745 7.93831C15.7745 8.63133 15.6205 9.2858 15.3574 9.88258C16.2429 10.4793 16.8654 11.3584 17.1284 12.3658C18.508 12.3209 19.6117 11.1851 19.6117 9.79916Z" fill="#1E1E1E"/>
<path d="M14.6826 10.9734C13.8035 12.0322 12.4817 12.7123 10.9994 12.7123C9.51719 12.7123 8.19535 12.0322 7.31627 10.9734C6.50134 11.5381 6.01367 12.4621 6.01367 13.4631V15.9977C6.01367 16.8511 6.70668 17.5505 7.56653 17.5505H14.4323C15.2922 17.5505 15.9852 16.8511 15.9852 15.9977V13.4631C15.9852 12.4621 15.4975 11.5381 14.6826 10.9734Z" fill="#1E1E1E"/>
<path d="M11.0008 11.4276C12.9277 11.4276 14.4898 9.86554 14.4898 7.93859C14.4898 6.01163 12.9277 4.44952 11.0008 4.44952C9.07383 4.44952 7.51172 6.01163 7.51172 7.93859C7.51172 9.86554 9.07383 11.4276 11.0008 11.4276Z" fill="#1E1E1E"/>
</g>
<defs>
<clipPath id="clip0_4497_11355">
<rect width="22" height="22" fill="white"/>
</clipPath>
</defs>
</svg>
