<svg width="20" height="16" viewBox="0 0 20 16" fill="none" xmlns="http://www.w3.org/2000/svg">
<path d="M16.9346 0.771484H3.26317C1.60336 0.771484 0.257812 2.12684 0.257812 3.78668V12.5276C0.257812 14.1874 1.60333 15.5428 3.26317 15.5428H16.9346C18.5944 15.5428 19.9498 14.1874 19.9498 12.5276V3.78668C19.9498 2.12687 18.5944 0.771484 16.9346 0.771484ZM5.01123 10.3867C5.01123 10.7108 4.74605 10.976 4.42194 10.976C4.09783 10.976 3.83266 10.7108 3.83266 10.3867V5.92766C3.83266 5.60356 4.09783 5.33837 4.42194 5.33837C4.74605 5.33837 5.01123 5.60355 5.01123 5.92766V10.3867ZM12.4658 9.65996C11.9747 10.4752 11.081 10.976 10.1086 10.976C9.03811 10.976 8.05596 10.3671 7.60415 9.4144C7.40772 9.05103 7.28986 8.60905 7.28986 8.14746C7.28986 6.60551 8.55681 5.33853 10.1086 5.33853C11.6506 5.33853 12.9176 6.60548 12.9176 8.14746C12.9176 8.69746 12.7604 9.22781 12.4658 9.65996ZM16.3846 10.3867C16.3846 10.7108 16.1194 10.976 15.7953 10.976C15.4712 10.976 15.206 10.7108 15.206 10.3867V5.92766C15.206 5.60356 15.4712 5.33837 15.7953 5.33837C16.1194 5.33837 16.3846 5.60355 16.3846 5.92766V10.3867Z" fill="#1E1E1E"/>
</svg>
