<svg width="22" height="22" viewBox="0 0 22 22" fill="none" xmlns="http://www.w3.org/2000/svg">
<path d="M16.5013 0.916504H5.5013C2.97398 0.916504 0.917969 2.97251 0.917969 5.49984V16.4998C0.917969 19.0272 2.97398 21.0832 5.5013 21.0832H16.5013C19.0286 21.0832 21.0846 19.0272 21.0846 16.4998V5.49984C21.0846 2.97251 19.0286 0.916504 16.5013 0.916504ZM6.8763 16.9582C6.8763 17.4644 6.46586 17.8748 5.95964 17.8748C5.45341 17.8748 5.04297 17.4644 5.04297 16.9582V11.9165C5.04297 11.4103 5.45341 10.9998 5.95964 10.9998C6.46586 10.9998 6.8763 11.4103 6.8763 11.9165V16.9582ZM11.918 16.9582C11.918 17.4644 11.5075 17.8748 11.0013 17.8748C10.4951 17.8748 10.0846 17.4644 10.0846 16.9582V7.33317C10.0846 6.82694 10.4951 6.4165 11.0013 6.4165C11.5075 6.4165 11.918 6.82694 11.918 7.33317V16.9582ZM16.9596 16.9582C16.9596 17.4644 16.5492 17.8748 16.043 17.8748C15.5367 17.8748 15.1263 17.4644 15.1263 16.9582V5.0415C15.1263 4.53528 15.5367 4.12484 16.043 4.12484C16.5492 4.12484 16.9596 4.53528 16.9596 5.0415V16.9582Z" fill="#1E1E1E"/>
</svg>
