<svg width="22" height="22" viewBox="0 0 22 22" fill="none" xmlns="http://www.w3.org/2000/svg">
<path d="M16.4993 0.916504H5.49935C2.97203 0.916504 0.916016 2.97251 0.916016 5.49984V16.4998C0.916016 19.0272 2.97203 21.0832 5.49935 21.0832H16.4993C19.0267 21.0832 21.0827 19.0272 21.0827 16.4998V5.49984C21.0827 2.97251 19.0267 0.916504 16.4993 0.916504ZM6.87435 16.9582C6.87435 17.4644 6.46391 17.8748 5.95768 17.8748C5.45146 17.8748 5.04102 17.4644 5.04102 16.9582V11.9165C5.04102 11.4103 5.45146 10.9998 5.95768 10.9998C6.46391 10.9998 6.87435 11.4103 6.87435 11.9165V16.9582ZM11.916 16.9582C11.916 17.4644 11.5056 17.8748 10.9993 17.8748C10.4931 17.8748 10.0827 17.4644 10.0827 16.9582V7.33317C10.0827 6.82694 10.4931 6.4165 10.9993 6.4165C11.5056 6.4165 11.916 6.82694 11.916 7.33317V16.9582ZM16.9577 16.9582C16.9577 17.4644 16.5472 17.8748 16.041 17.8748C15.5348 17.8748 15.1243 17.4644 15.1243 16.9582V5.0415C15.1243 4.53528 15.5348 4.12484 16.041 4.12484C16.5472 4.12484 16.9577 4.53528 16.9577 5.0415V16.9582Z" fill="url(#paint0_linear_4292_3668)"/>
<defs>
<linearGradient id="paint0_linear_4292_3668" x1="9.01973" y1="0.916503" x2="21.1833" y2="9.62908" gradientUnits="userSpaceOnUse">
<stop stop-color="#29BBDF"/>
<stop offset="1" stop-color="#008AAC"/>
</linearGradient>
</defs>
</svg>
