<svg width="20" height="20" viewBox="0 0 20 20" fill="none" xmlns="http://www.w3.org/2000/svg">
<path d="M9.99987 8.2006C9.00533 8.2006 8.19987 9.00606 8.19987 10.0006C8.19987 10.9951 9.00533 11.8006 9.99987 11.8006C10.9944 11.8006 11.7999 10.9951 11.7999 10.0006C11.7991 9.00684 10.9936 8.20138 9.99987 8.2006ZM9.99987 10.6006C9.66863 10.6006 9.39987 10.3318 9.39987 10.0006C9.39987 9.66936 9.66863 9.4006 9.99987 9.4006C10.3311 9.4006 10.5999 9.66936 10.5999 10.0006C10.5999 10.3318 10.3311 10.6006 9.99987 10.6006ZM17.7999 11.4272C17.2881 11.4272 16.8006 11.6451 16.46 12.0272L14.0702 11.0373C14.2429 10.3569 14.2429 9.64436 14.0702 8.96392L16.4624 7.97408C17.1273 8.71236 18.2648 8.77174 19.003 8.10611C19.7413 7.44127 19.8007 6.30377 19.1351 5.56552C18.4702 4.82723 17.3327 4.76785 16.5945 5.43348C16.2156 5.77488 15.9991 6.26082 15.9999 6.77098C15.9999 6.80223 15.9999 6.83426 16.0023 6.86551L13.6101 7.85535C13.2507 7.25301 12.7476 6.74989 12.1452 6.38973L13.1366 3.99833C13.1679 3.9999 13.1999 4.00068 13.2319 4.00068C14.2273 4.00224 15.0351 3.196 15.0366 2.20068C15.0382 1.20536 14.2319 0.397558 13.2366 0.395998C12.2413 0.394436 11.4335 1.20068 11.4319 2.196C11.4312 2.70772 11.6483 3.19522 12.028 3.5374L11.0366 5.928C10.3562 5.75534 9.64367 5.75534 8.96323 5.928L7.97262 3.5342C8.70856 2.86702 8.7648 1.72952 8.09762 0.992798C7.43044 0.256858 6.29293 0.200618 5.55621 0.867798C4.82027 1.53498 4.76403 2.67248 5.43121 3.4092C5.77261 3.78576 6.25699 4.0006 6.76559 3.99982C6.79919 3.99982 6.83278 3.99826 6.86559 3.99669L7.85465 6.38729C7.25232 6.74667 6.74841 7.24979 6.38903 7.85213L3.99843 6.86073C4 6.82948 4.00078 6.79745 4.00078 6.76542C4.00156 5.7701 3.19532 4.9623 2.2 4.96152C1.20704 4.96152 0.399218 5.76776 0.398438 6.76308C0.397657 7.7584 1.2039 8.5662 2.19922 8.56698C2.71094 8.56776 3.19844 8.35058 3.54062 7.9701L5.93122 8.9615C5.75856 9.64196 5.75856 10.3545 5.93122 11.0349L3.53822 12.0247C2.87338 11.2865 1.73588 11.2271 0.997618 11.8927C0.259338 12.5575 0.199958 13.6951 0.865586 14.4333C1.53043 15.1716 2.66793 15.231 3.40619 14.5653C3.78509 14.2239 4.00151 13.738 4.00073 13.2278C4.00073 13.1966 4.00073 13.1646 3.99838 13.1333L6.39058 12.1435C6.74996 12.7458 7.25308 13.2497 7.85542 13.6091L6.86402 16.0013C6.83121 15.9982 6.79918 15.9974 6.76715 15.9974C5.77183 15.9966 4.96403 16.8028 4.96247 17.7982C4.9609 18.7935 5.76793 19.6013 6.76325 19.6028C7.75857 19.6036 8.56637 18.7974 8.56793 17.8021C8.56871 17.2903 8.35153 16.8028 7.97105 16.4599L8.96245 14.0693C9.64291 14.2419 10.3554 14.2419 11.0358 14.0693L12.0257 16.4607C11.2866 17.1247 11.2257 18.2622 11.8897 19.0005C12.5538 19.7395 13.6913 19.8005 14.4295 19.1364C15.1686 18.4724 15.2295 17.3349 14.5655 16.5966C14.2249 16.2169 13.7381 15.9997 13.228 15.9997C13.1967 15.9997 13.1647 15.9997 13.1335 16.0021L12.1436 13.6099C12.746 13.2505 13.2499 12.7474 13.6092 12.145L16.0022 13.1372C16.0007 13.1669 15.9999 13.1974 15.9999 13.2271C15.9999 14.2216 16.8054 15.0271 17.7999 15.0271C18.7944 15.0271 19.5999 14.2216 19.5999 13.2271C19.5999 12.2325 18.7944 11.4272 17.7999 11.4272ZM17.7999 6.17096C18.1311 6.17096 18.3999 6.43972 18.3999 6.77096C18.3999 7.1022 18.1311 7.37096 17.7999 7.37096C17.4686 7.37096 17.1999 7.1022 17.1999 6.77096C17.1999 6.43972 17.4686 6.17096 17.7999 6.17096ZM13.2327 1.60136C13.5639 1.60136 13.8327 1.87012 13.8327 2.20136C13.8327 2.5326 13.5639 2.80136 13.2327 2.80136C12.9014 2.80136 12.6327 2.5326 12.6327 2.20136C12.6327 1.87012 12.9014 1.60136 13.2327 1.60136ZM6.16707 2.20136C6.16707 1.87012 6.43583 1.60136 6.76707 1.60136C7.09831 1.60136 7.36707 1.87012 7.36707 2.20136C7.36707 2.5326 7.09831 2.80136 6.76707 2.80136C6.43583 2.80136 6.16707 2.5326 6.16707 2.20136ZM2.20227 7.36616C1.87103 7.36616 1.60227 7.0974 1.60227 6.76616C1.60227 6.43492 1.87103 6.16616 2.20227 6.16616C2.53351 6.16616 2.80227 6.43492 2.80227 6.76616C2.80227 7.0974 2.53351 7.36616 2.20227 7.36616ZM2.19992 13.8272C1.86868 13.8272 1.59992 13.5584 1.59992 13.2272C1.59992 12.8959 1.86868 12.6272 2.19992 12.6272C2.53116 12.6272 2.79992 12.8959 2.79992 13.2272C2.79992 13.5584 2.53116 13.8272 2.19992 13.8272ZM6.76712 18.3976C6.43588 18.3976 6.16712 18.1288 6.16712 17.7976C6.16712 17.4663 6.43588 17.1976 6.76712 17.1976C7.09836 17.1976 7.36712 17.4663 7.36712 17.7976C7.36712 18.1288 7.09836 18.3976 6.76712 18.3976ZM13.8281 17.8007C13.8281 18.1319 13.5594 18.4007 13.2281 18.4007C12.8969 18.4007 12.6281 18.1319 12.6281 17.8007C12.6281 17.4694 12.8969 17.2007 13.2281 17.2007C13.5594 17.2007 13.8281 17.4686 13.8281 17.8007ZM9.99992 13.0007C8.34288 13.0007 6.99992 11.6577 6.99992 10.0007C6.99992 8.34364 8.34288 7.00068 9.99992 7.00068C11.657 7.00068 12.9999 8.34364 12.9999 10.0007C12.9984 11.6561 11.6562 12.9983 9.99992 13.0007ZM17.7999 13.828C17.4687 13.828 17.1999 13.5593 17.1999 13.228C17.1999 12.8968 17.4687 12.628 17.7999 12.628C18.1312 12.628 18.3999 12.8968 18.3999 13.228C18.3991 13.5593 18.1312 13.8272 17.7999 13.8272V13.828Z" fill="url(#paint0_linear_4292_1921)"/>
<defs>
<linearGradient id="paint0_linear_4292_1921" x1="8.11429" y1="0.395996" x2="19.6979" y2="8.69083" gradientUnits="userSpaceOnUse">
<stop stop-color="#29BBDF"/>
<stop offset="1" stop-color="#008AAC"/>
</linearGradient>
</defs>
</svg>
