<svg width="20" height="20" viewBox="0 0 20 20" fill="none" xmlns="http://www.w3.org/2000/svg">
<path d="M18.9053 8.60643L16.8581 7.99532C16.7165 7.50113 16.5219 7.02371 16.2775 6.57143L17.2797 4.69532C17.3173 4.62451 17.3311 4.54345 17.319 4.46419C17.3069 4.38493 17.2696 4.31168 17.2125 4.25532L15.752 2.78866C15.6956 2.73162 15.6224 2.69428 15.5431 2.68217C15.4638 2.67006 15.3828 2.68383 15.312 2.72143L13.4481 3.71755C12.9913 3.46128 12.5077 3.25633 12.0059 3.10643L11.3947 1.08366C11.3689 1.00911 11.3201 0.94469 11.2553 0.899665C11.1905 0.85464 11.1131 0.831334 11.0342 0.833101H8.96863C8.88927 0.833471 8.8121 0.859156 8.74835 0.906418C8.6846 0.953681 8.6376 1.02005 8.61418 1.09588L8.00307 3.11255C7.49708 3.26164 7.00926 3.46661 6.54863 3.72366L4.7153 2.73366C4.64448 2.69605 4.56342 2.68228 4.48416 2.69439C4.4049 2.7065 4.33165 2.74384 4.2753 2.80088L2.7903 4.24921C2.73326 4.30557 2.69592 4.37882 2.68381 4.45808C2.6717 4.53734 2.68547 4.6184 2.72307 4.68921L3.71307 6.52255C3.45644 6.98124 3.25148 7.46699 3.10196 7.97088L1.07918 8.58199C1.00336 8.60541 0.936986 8.65241 0.889723 8.71616C0.842461 8.77991 0.816776 8.85708 0.816406 8.93643V11.002C0.816776 11.0813 0.842461 11.1585 0.889723 11.2223C0.936986 11.286 1.00336 11.333 1.07918 11.3564L3.11418 11.9675C3.26534 12.463 3.47026 12.9405 3.7253 13.3914L2.72307 15.3103C2.68547 15.3811 2.6717 15.4622 2.68381 15.5415C2.69592 15.6207 2.73326 15.694 2.7903 15.7503L4.25085 17.2109C4.30721 17.2679 4.38045 17.3053 4.45972 17.3174C4.53898 17.3295 4.62003 17.3157 4.69085 17.2781L6.57918 16.2698C7.02588 16.5108 7.49708 16.7034 7.98474 16.8442L8.59585 18.9037C8.61927 18.9795 8.66627 19.0459 8.73002 19.0931C8.79377 19.1404 8.87094 19.1661 8.9503 19.1664H11.0159C11.0952 19.1661 11.1724 19.1404 11.2361 19.0931C11.2999 19.0459 11.3469 18.9795 11.3703 18.9037L11.9814 16.8381C12.4649 16.6965 12.932 16.504 13.3747 16.2637L15.2753 17.2781C15.3461 17.3157 15.4272 17.3295 15.5064 17.3174C15.5857 17.3053 15.6589 17.2679 15.7153 17.2109L17.1758 15.7503C17.2329 15.694 17.2702 15.6207 17.2823 15.5415C17.2944 15.4622 17.2807 15.3811 17.2431 15.3103L16.2286 13.4159C16.4715 12.9714 16.6661 12.5023 16.8092 12.0164L18.8686 11.4053C18.9445 11.3819 19.0108 11.3349 19.0581 11.2712C19.1054 11.2074 19.131 11.1302 19.1314 11.0509V8.96699C19.135 8.891 19.1153 8.81572 19.0749 8.75127C19.0344 8.68682 18.9753 8.63628 18.9053 8.60643ZM10.0014 13.3609C9.33664 13.3609 8.6868 13.1638 8.13407 12.7944C7.58134 12.4251 7.15054 11.9002 6.89614 11.286C6.64175 10.6718 6.57519 9.99604 6.70488 9.34405C6.83457 8.69206 7.15468 8.09316 7.62474 7.6231C8.0948 7.15304 8.69369 6.83293 9.34569 6.70324C9.99768 6.57355 10.6735 6.64011 11.2876 6.89451C11.9018 7.1489 12.4267 7.5797 12.7961 8.13243C13.1654 8.68517 13.3625 9.335 13.3625 9.99977C13.3625 10.8912 13.0084 11.7461 12.3781 12.3764C11.7477 13.0068 10.8928 13.3609 10.0014 13.3609Z" fill="#1E1E1E"/>
</svg>
