<svg width="18" height="19" viewBox="0 0 18 19" fill="none" xmlns="http://www.w3.org/2000/svg">
<path d="M1.35385 6.70305H13.8241L12.4826 8.04451C12.2437 8.26774 12.1043 8.579 12.099 8.90597C12.0928 9.23401 12.2206 9.54945 12.4522 9.78106C12.6838 10.0127 12.9993 10.1405 13.3273 10.1353C13.6554 10.129 13.9656 9.99066 14.1898 9.75066L17.5918 6.33825C17.8181 6.11188 17.946 5.80376 17.946 5.48307C17.946 5.16342 17.8181 4.85532 17.5918 4.62893L14.192 1.2302C13.7183 0.758594 12.9511 0.760687 12.4806 1.23544C12.009 1.70914 12.0111 2.47525 12.4858 2.94685L13.8273 4.28831H1.3538C0.687255 4.28831 0.146484 4.82909 0.146484 5.49563C0.146484 6.16218 0.6873 6.70305 1.35385 6.70305Z" fill="#1E1E1E"/>
<path d="M16.7387 13.1419H4.26842L5.60988 11.8005C6.05318 11.3247 6.03958 10.5837 5.57949 10.1236C5.12047 9.66357 4.37845 9.65099 3.90266 10.0943L0.500711 13.5067C0.274339 13.7331 0.146484 14.0412 0.146484 14.3619C0.146484 14.6815 0.274342 14.9896 0.500711 15.216L3.90052 18.6148C4.37421 19.0864 5.14137 19.0843 5.61193 18.6095C6.08353 18.1358 6.08144 17.3697 5.60669 16.8981L4.26522 15.5566H16.7387C17.4052 15.5566 17.946 15.0159 17.946 14.3493C17.946 13.6828 17.4052 13.1419 16.7387 13.1419Z" fill="#1E1E1E"/>
</svg>
