<svg width="22" height="22" viewBox="0 0 22 22" fill="none" xmlns="http://www.w3.org/2000/svg">
<path d="M3.35189 7.70305H15.8221L14.4807 9.04451C14.2417 9.26774 14.1023 9.579 14.0971 9.90597C14.0908 10.234 14.2187 10.5494 14.4503 10.7811C14.6819 11.0127 14.9974 11.1405 15.3254 11.1353C15.6534 11.129 15.9636 10.9907 16.1879 10.7507L19.5898 7.33825C19.8162 7.11188 19.9441 6.80376 19.9441 6.48307C19.9441 6.16342 19.8162 5.85532 19.5898 5.62893L16.19 2.2302C15.7163 1.75859 14.9492 1.76069 14.4786 2.23544C14.007 2.70914 14.0091 3.47525 14.4838 3.94685L15.8253 5.28831H3.35185C2.6853 5.28831 2.14453 5.82909 2.14453 6.49563C2.14453 7.16218 2.68535 7.70305 3.35189 7.70305Z" fill="url(#paint0_linear_4292_3521)"/>
<path d="M18.7367 14.1419H6.26647L7.60793 12.8005C8.05123 12.3247 8.03763 11.5837 7.57754 11.1236C7.11852 10.6636 6.3765 10.651 5.90071 11.0943L2.49876 14.5067C2.27239 14.7331 2.14453 15.0412 2.14453 15.3619C2.14453 15.6815 2.27239 15.9896 2.49876 16.216L5.89856 19.6148C6.37226 20.0864 7.13942 20.0843 7.60997 19.6095C8.08158 19.1358 8.07949 18.3697 7.60473 17.8981L6.26327 16.5566H18.7367C19.4033 16.5566 19.9441 16.0159 19.9441 15.3493C19.9441 14.6828 19.4033 14.1419 18.7367 14.1419Z" fill="url(#paint1_linear_4292_3521)"/>
<defs>
<linearGradient id="paint0_linear_4292_3521" x1="9.29704" y1="1.87793" x2="14.9048" y2="9.60098" gradientUnits="userSpaceOnUse">
<stop stop-color="#29BBDF"/>
<stop offset="1" stop-color="#008AAC"/>
</linearGradient>
<linearGradient id="paint1_linear_4292_3521" x1="9.29704" y1="10.77" x2="14.8568" y2="18.4773" gradientUnits="userSpaceOnUse">
<stop stop-color="#29BBDF"/>
<stop offset="1" stop-color="#008AAC"/>
</linearGradient>
</defs>
</svg>
